<svg id="Layer_1" data-name="Layer 1" xmlns="http://www.w3.org/2000/svg" viewBox="0 0 1366 768"><defs><style>.cls-1{fill:#cbcbcb;}.cls-2{fill:#202020;}.cls-3{fill:#bfbfbf;}.cls-4{fill:#575757;}.cls-5{fill:#2f2f2f;}.cls-6{fill:#1b1b1b;}.cls-7{fill:#eee;}.cls-8{fill:#0d0d0d;}.cls-9{fill:#dcdcdd;}.cls-10{fill:#979797;}.cls-11{fill:#8b8b8b;}.cls-12{fill:#020202;}.cls-13{fill:#fefefe;}.cls-14{fill:#282828;}</style></defs><title>Artboard 1</title><path class="cls-1" d="M1021.26,687.6c1.27,1.81,2.37,3,4.51,1.28s.89-3.4-.23-4.92"/><path class="cls-1" d="M993.47,695.7c1.84,1.94,3.73,3.88,4.16,6.71-2.93-.09-5.89-.54-8.7.7l-1.77.08-1.83-.2c-1.74-2.89-4.11-5.75.85-8.06,1.19-.55.8-1.9-.11-2.84-1.11-1.13-2.51-2-3.71-.6-2.83,3.17-4.57,1.39-6.29-1.06-.88-1.27-1.62-3.3-3.54-2a3.22,3.22,0,0,0-.67,5c3.36,3.69,1,5.89-1.77,8.1-.85.68-2,1.1-2.08,2.42H965.3c-.53-2.93-2.64-4.81-4.53-6.91-2.79,2.08-2.11,4.62-1.2,7.19l-5.65,0c-1.39,0-2.88-.6-4,.81l-13.36.89c-1.28-1.35-1.65-.34-2,.76-14.91-.15-29.75,1.41-44.63,2.11-24,1.12-48,3.28-72.08,4.16-15.64.57-31.3,1.73-46.9,2.93-23.52,1.8-47.09,2.67-70.6,4.43-14.2,1.06-28.48,1.34-42.61,3-10.75,1.25-21.51.26-32.26,1.57-10.58,1.29-21.1-1.29-31.6-2.73q-20.42-2.81-40.82-5.64c-15.33-2.13-30.65-4.46-46-6.29-16.63-2-33.19-4.45-49.81-6.47-11.1-1.35-22.27-2.66-33.33-4.64-5.27-.94-10.75-.77-16-1.87-10.54-2.23-21.33-2.29-31.93-4.28-5.7-1.08-11.47-2.09-17.23-3-1.65-.26-4.82-2.29-5.68,1.78-.19.87-1,0-1.39-.39-2.52-2.32-5.68-2.4-8.82-2.52-1,0-2.3-.53-1.36,1.62.55,1.25-1.12,1.31-1.75.56-3-3.63-7.08-3.86-11.45-4.4-9.85-1.21-19.78-2.23-29.54-3.86-15.7-2.61-31.51-4.37-47.23-6.76-11.19-1.71-22.55-3-33.79-4.6-10-1.41-20-1.86-29.95-4-7.48-1.61-15.32-2.24-23-3-8.66-.81-17.07-3.22-25.78-3.33-.49-1.93-1.42-2.37-2.91-.84-11.18-1.68-22.56-1.83-33.62-4.44-3.71-.88-7.51-.36-11.3-1.07-7.85-1.47-15.93-1.72-23.76-3.28-9.9-2-20-2.28-29.92-4-8.13-1.45-16.44-2.11-25.09-4,4.63-2.75,9.33-2.25,13.94-2.3,1.36,2.6,4,2.27,6.27,2.6,3,.44,6,.37,9,.75q43.88,5.58,87.76,11.24a1.74,1.74,0,0,0,1,1.68c2.58,1.38,5.14,1.55,7.64-.2l1.8,0a2.27,2.27,0,0,0,2.07,1.21c.22.49.47.49.73,0a3.18,3.18,0,0,0,.5-.7c9.85.33,19.53,2.23,29.3,3.39q26.68,3.16,53.35,6.51c11.46,1.42,22.84,3.54,34.44,3.68,4.94,2.46,10.43,1.77,15.64,2.5,21,2.93,42.09,5.38,63.15,8a1.58,1.58,0,0,0,2.56.56l6,.63a1.84,1.84,0,0,0,2.49.59h1.22l6.78.54c2.76,1.71,5.57,1.15,8.39.2,2.33.22,4.08,2.25,6.53,2.11l10.32.56c1.92-.69,2.93,2.48,5,1.17l5.06.56a1.83,1.83,0,0,0,2.49.56l19.53,1.69a6.76,6.76,0,0,0,4.17.27c1.19,1.73,3,1.16,4.6,1.17,24.31.09,48.51-2.4,72.78-3.29,30.78-1.13,61.51-3.35,92.27-5,32.5-1.71,65-3.28,97.52-4.9,1.26-.07,2.56,0,3.62-.89l4.66,0c7.93-.19,15.87-.17,23.8-.59,31.87-1.66,63.73-3.52,95.6-5.18,23.31-1.21,46.64-2,69.94-3.36,37.57-2.17,75.14-4.34,112.75-5.71,2.8.41,5.61,1,8.23-.7a31.72,31.72,0,0,1,9.28,0,6.38,6.38,0,0,1-.68,2.2"/><path class="cls-1" d="M1011.42,694.56a7.2,7.2,0,0,1-3.58,4.3,4.1,4.1,0,0,1-5.53-1.14"/><path class="cls-1" d="M1048.23,661.1h1.88a2.43,2.43,0,0,0,3.59.93c3.76-2.27,7.81-2.22,11.91-2.12l7.89-.32c3.14.38,6.36,1.79,9.21-.85,30.09-1.49,60.18-3.08,90.28-4.36,4.35-.19,7.27-1.17,8.33-5.61,11.45,2.24,22.89,4.55,34.36,6.68,8.22,1.53,16.49,2.75,24.73,4.22,19.57,3.49,39,7.48,58.74,10.29,6.08.86,12.06,2.44,18.08,3.7a1.9,1.9,0,0,0,1.9.91,20.67,20.67,0,0,0-.9,8.41l-.06.24-8.38-.81c-1.58-.07-3.43-.88-4.08,1.52-21.58-.42-43,2.45-64.51,3.44-20,.93-40.13,2-60.15,3.6-11.22.88-22.48,1-33.64,2-17.18,1.48-34.4,2.34-51.59,3.36-12.17.73-24.28,2.11-36.5,2.2-15.18.11-30.24,2.82-45.46,2.78a27.87,27.87,0,0,0,1.76-4.87"/><path class="cls-2" d="M140,657.26l-1.8,0-2.37-.24c-1.88-1.55-4.12-1.23-6.31-1.24q-43.88-5.62-87.76-11.24c-3-.38-6-.31-9-.75-2.25-.33-4.91,0-6.27-2.6.63-9.86-1.21-19.58-1.76-29.38-.22-4,.68-5.57,4.66-5C31,608,33,607.83,34.88,608c15.63,1.64,31.28,3.19,46.9,4.89q42.85,4.68,85.68,9.5,45.43,5.08,90.86,10.21c.11,3.62-.48,7.43.47,10.81a37.45,37.45,0,0,1,.72,15.5c-.68,5,1.28,10.38,4.42,11.51l-3.55.94c-11.59-.15-23-2.27-34.43-3.69q-26.67-3.3-53.35-6.51c-9.77-1.16-19.45-3.06-29.3-3.39A3,3,0,0,0,140,657.26Zm109.74-15.78c0-6.86-.06-6.35-6.63-7.15-8.64-1.05-17.29-1.52-26-2.17-3.59-.27-4.71.33-4.61,3.67a28.48,28.48,0,0,1,0,3.81c-.35,3.14.68,4.26,4.13,4.55,8.79.73,17.42,2.67,26.31,3.06C249.78,647.54,249.75,648.26,249.74,641.48Zm0,18.11c0-7.5-.05-7.11-7.48-8.06-8-1-16-1.47-24-2.18-3.74-.33-4.54.77-4.72,3.72-.12,1.9,0,3.81,0,5.71,0,1.51.66,2.24,2.24,2.44,9.35,1.23,18.68,2.64,28,3.78C249.73,665.72,249.75,665.56,249.75,659.59ZM78,629.59c0,5.7,5,11.7,9.68,11.59,4.05-.1,7.46-4.4,7.48-9.42,0-5.27-4.59-10.57-9.27-10.65C80.93,621,78.07,624.11,78,629.59Zm40.09,4.82c0-6.87-5.26-12.24-10.51-10.94a7,7,0,0,0-5.54,5.79c-.78,4.31-.17,8.64,3.38,11.75,4.77,4.17,8.35,3.85,11.53-.65C118.27,638.52,118.12,636.46,118.12,634.41Z"/><path class="cls-3" d="M258.32,632.63q-45.42-5.1-90.86-10.21-42.84-4.78-85.68-9.5c-15.62-1.7-31.27-3.25-46.9-4.89-1.88-.2-3.84-.08-5.51-1.22,2.26-3.18,5.9-2.29,8.9-2.67,16.15-2.07,32.29-4.42,48.51-5.46,12.34-.8,24.56-2.55,36.88-3.29,18.49-1.1,37-2.49,55.43-3.72,10.26-.69,20.53-1.69,30.81-1.88,25.84-.47,51.59-2.81,77.44-3.37,23.43-.52,46.86-2,70.32-2.67,28.84-.82,57.65-2.74,86.52-2.74,0,1.08.07,2.19-1.15,2.77-1.27-2.21-2.33.26-3.57.2-15.46-.73-30.6,3.68-46.09,2.86-1.78-.09-3.83-.75-5.34,1-2-.05-4.18-.35-3.84,2.8-6.89-1.26-13.86-1-20.81-1-9.49,0-19-.17-28.44.92-10.34,1.18-20.69,2.53-31.15,2-.52,0-1.07.57-1.6.87-1.51.19-3.54-.67-3.87,1.91-5.66-.27-11.52-1-17-.46-10.24.95-20.46-.13-30.72,1.18-13.1,1.67-26.35,2.9-39.65,2.13-2-.11-3.92,0-4.13,2.72-2,.08-4,.32-5.86-.38-1.59-.59-2.66-.21-3.06,1.54-7.41.33-14.71-1.4-22.15-1.14-4.11.14-8.12.88-12.2,1-9.25.38-18.36,2.81-27.71,2-.5,0-1,.57-1.58.88a13.51,13.51,0,0,0-1.91,0c-1.16.16-3-.7-3.26.91-.27,1.92,1.7,1.73,3.07,2,6.24,1,12.72.86,18.78,2.12,10.48,2.19,20.87-2.25,31.69,2.09,8.58,3.44,19,2.61,28.55,3.25,6.48.44,12.6-.58,19.52,1.36,11.35,3.18,23.77,2.48,35.73,3.55,6.93.63,13.66-.28,20.92,1.42,13.37,3.12,27.48,4.78,41.37,2.35,5.07-.88,8.63,2.42,13.06,2.95,6.43.76,12.84,1.83,19.29,2.15,9.43.47,18.76,2.56,28.36,1,3.15-.5,7.65-2.71,10.11,2.11-1.38,2.41-1.34,4.81.5,6.9,1.48,1.7,1.55,3.26.27,5-5.49-.41-11-.57-16.45-1.3-13.68-1.85-27.39-3.46-41.16-4.36-3.66-.25-7.3.2-10.84-1.4-3.39-1.53-6.47-.31-9.19,2l-1-.15c.91-2.6-.3-3.27-2.73-3.37-5.19-.23-10.25.86-15.37,1.34l-3.33-.16c-1-3.74-2.87-.66-4.36-.59l-2.32-.29c.15-2.43-1-3.39-3.38-3.13q-6.19.71-12.4,1.37l-4.22-.24c-1.23-1.7-2.79-1.25-4.37-.68Zm22.22-.63h-4.76A6,6,0,0,0,280.54,632Zm22.72,3.27c1.13-.44,2.41.88,3.81-.87C305.56,634.9,304.32,634,303.26,635.27Z"/><path class="cls-4" d="M693.66,106c-2.79-1.24-5.62-.08-8.43-.09-11.28,0-22.58-.28-33.85.2-19.48.84-39,1.71-58.47,1.85-6.63,0-12.67,5.5-14.38,11.83-3.55,13.08-7.36,26.1-10.78,39.22-4.13,15.86-7.68,31.87-12,47.67-2.18,7.89-4.29,15.81-6.43,23.71-2.44,9-4.95,18-7.38,27a11.21,11.21,0,0,0-.23,2.84c0,.78,0,1.7,1.08,1.75s1.43-.66,1.6-1.46a15.55,15.55,0,0,0,.15-2.37c.08-1.38-.29-3.09,1.87-3.17s3.22,1.08,3.73,3c1.48,5.54-1.62,10.14-7.35,10-3.83-.11-3.73,2.18-4.39,4.63-4.49,16.61-9.21,33.16-13.62,49.79-4.33,16.31-8.31,32.72-12.59,49.05-3.28,12.49-6.92,24.89-10.17,37.4-5.06,19.54-9.84,39.16-14.92,58.7-3.28,12.67-7,25.23-10.3,37.89-4.25,16.17-8.24,32.41-12.52,48.57-3.5,13.27-7.24,26.48-10.91,39.71-.51,1.82-.17,3.85-1.36,5.49l-4.75-5.64c1.43-5.17,3-10.3,4.26-15.5,2.1-8.74,4.87-17.32,6.85-26.05s4.74-17.53,6.75-26.39c3.1-13.66,7.15-27.11,10.74-40.66,2.14-8.07,4.14-16.17,6.29-24.24,3.26-12.27,6.83-24.47,9.83-36.8,2.29-9.35,5-18.59,7.15-28,3-13.12,7.75-25.84,10.67-39,2.78-12.45,6.16-24.76,9.37-37.07,3.42-13.08,6.75-26.21,10.49-39.23,2.64-9.2,4.82-18.54,7.29-27.79.36-1.36,1.46-2.69,0-3.9-1.66-1.4-2.21,1.47-3.67,1.12a16.53,16.53,0,0,1,2.13-8.27c2.6,3,4,1.56,4.81-1.38,2.09-7.56,4.17-15.13,6.12-22.72,4.29-16.66,8.2-33.42,12.82-50,5-18,9.84-36.12,14-54.38a6.21,6.21,0,0,1,2.72-3.75,39.92,39.92,0,0,1,23.69-7.52c10.29,0,20.58.09,30.9-.65,14.69-1,29.48-.79,44.22-1.17,15.85-.4,31.69.32,47.57-.76,15.15-1,30.37-1.26,45.56-2,18.54-.85,37.12.49,55.67-1,11.37-.91,22.81-.26,34.23-.8,14.56-.68,29.14-1.37,43.75-1.31q31.41.12,62.81-1.09c7.91-.32,15.87-.12,23.73-.9,12.22-1.21,24.4-.68,36.6-.49-.35,1.76-.69,3.51-1,5.27-1.1.22-2.41-.06-3.11,1.21l-3.54.08a2.21,2.21,0,0,0-2-1.07c-10.29.33-20.62-.83-30.88.73a14.91,14.91,0,0,1-1.9.13c-13.62.33-27.26.38-40.87,1-21.72,1-43.47.37-65.17,1.12-19.16.67-38.32,1.14-57.46,2-10.93.46-21.86.57-32.78.66-18.06.15-36.09.85-54.13,1.74"/><path class="cls-5" d="M1024.62,92c-12.2-.19-24.38-.72-36.6.49-7.86.78-15.82.58-23.73.9q-31.38,1.26-62.81,1.09c-14.61-.06-29.19.63-43.75,1.31-11.42.54-22.86-.11-34.23.8-18.55,1.49-37.13.15-55.67,1-15.19.69-30.41.91-45.56,2-15.88,1.08-31.72.36-47.57.76-14.74.38-29.53.12-44.22,1.17-10.32.74-20.61.65-30.9.65a39.92,39.92,0,0,0-23.69,7.52,6.21,6.21,0,0,0-2.72,3.75c-4.19,18.26-9,36.34-14,54.38-4.62,16.57-8.53,33.33-12.82,50-2,7.59-4,15.16-6.12,22.72-.81,2.94-2.21,4.39-4.81,1.38,2.8-13.62,6.93-26.9,10.46-40.33,5.65-21.54,11.47-43,17.25-64.53q3.51-13,7.14-26c2.24-8,7.11-13.64,17-13.79,44.47-.66,88.92-2.21,133.39-3.1,37.15-.74,74.3-1.9,111.46-2.73,38.91-.87,77.79-2.45,116.71-2.76,7.39.1,14.8.89,22.12-.81l28.29-.61c3.75.61,7.49,1.08,11.17-.36l18.6-.65C1029.25,89.37,1026.38,90.25,1024.62,92Z"/><path class="cls-6" d="M1073.5,659.58l-7.89.32c.77-4.31-.55-6.37-3.73-5.81-3.72.64-12.2-6.42-12.07-10.15a2.6,2.6,0,0,1,1.08-1.93c4-2.11,2-4.33.23-6.57h4.44c.53,3,2.53,5,4.22,7.32,1.39,1.86,2.75,1.58,4.44.37s1.43-2.52.33-4c-.85-1.13-1.58-2.35-2.36-3.54,3.94-.17,7.9-.05,11.76-1.1,2.34,3.51,7.24,6.93.12,10.67-1.41.74-.18,2,.45,2.77.79,1,1.09,2.69,3.09,2.29,5.17-1,8.38-7.66,5.85-12.35-.82-1.51-1.89-2.89-2.84-4.33a2.1,2.1,0,0,0,2-1c7.6,8,12.65,8,19.34-.07l5.24.15c21.71.66,43.17-4.32,64.91-2.94a7.7,7.7,0,0,0,3.67-.88c2.48-1.21,4.21-.65,5.4,1.78l.29-.2.31.16a11.67,11.67,0,0,0-.13,7c-.23,3.3-.47,6.59-.7,9.89l-.32.12.31-.24c.14.5.28,1,.41,1.5-1.06,4.44-4,5.42-8.33,5.61-30.1,1.28-60.19,2.87-90.28,4.36C1079.6,658.56,1076.45,658,1073.5,659.58Z"/><path class="cls-5" d="M533.26,250.1c1.46.35,2-2.52,3.67-1.12,1.44,1.21.34,2.54,0,3.9-2.47,9.25-4.65,18.59-7.29,27.79-3.74,13-7.07,26.15-10.49,39.23-3.21,12.31-6.59,24.62-9.37,37.07-2.92,13.13-7.67,25.85-10.67,39-2.15,9.4-4.86,18.64-7.15,28-3,12.33-6.57,24.53-9.83,36.8C480,468.8,478,476.9,475.82,485c-3.59,13.55-7.64,27-10.74,40.66-2,8.86-4.74,17.52-6.75,26.39s-4.75,17.31-6.85,26.05c-1.26,5.2-2.83,10.33-4.26,15.5-5.1,2.18-5.1,2.18-1.94,7.56q-1,4.62-2,9.24c-8.16,4.87-9.42,10.69-3.74,18a47.37,47.37,0,0,0,4.75,4.64l.64,1.51a2.05,2.05,0,0,0-1.73,1.34c-1.91-.47-1.71-4.42-4.57-3-1.59.77-3.52,1.86-2.66,4.36a27.77,27.77,0,0,0,.23,8.14c-.68,1.25-1.15,2.48.18,3.63.08.6.16,1.2.25,1.79-3.1-.72-6-2.62-9.34-1.94,1.47-1.72,4.28-3.21,1-5.74,0-.63-.09-1.27-.13-1.91a20.56,20.56,0,0,0,1.89-8.59c2.58-4.41,2.59-9.56,4.09-14.28.82-.83.56-1.92.7-2.92,1.54-1.79,1.2-4,1.27-6.08,1.14-.77.83-2,1-3.1,2.16-2,1.62-4.72,1.77-7.24l-.15-.17c2-1.1,1.26-3.47,2.35-5,.74-1.33.47-2.76.4-4.18,0-2.09,2.26-3.56,1.62-5.84,1.22-.58,1.16-1.69,1.15-2.77,5.65-20.7,11.34-41.4,16.93-62.12q11.56-43,23-86,10-37.5,20.06-75c8.21-30.81,16.29-61.65,24.63-92.42.89-3.29.76-7,3-9.87,3.31-.2,2.69-1.78,1.28-3.64C533.14,251.34,533.2,250.72,533.26,250.1Z"/><path class="cls-7" d="M412.27,373.57l-.41-.73a3.78,3.78,0,0,0-.56.4s.1.35.18.37A4.23,4.23,0,0,0,412.27,373.57Z"/><path class="cls-8" d="M1181.15,630.56c-1.19-2.43-2.92-3-5.4-1.78a7.7,7.7,0,0,1-3.67.88c-21.74-1.38-43.2,3.6-64.91,2.94l-5.24-.15a17.08,17.08,0,0,0,.59-3.26c0-1.93.6-4.61-2.2-4.9-2.22-.23-3.75.7-3.91,3.86-.2,3.67-5,5.23-7.58,2.65-2.88-2.83-5.87-5.71-7.31-9.68,5.4-.23,10.85.72,16.19-.88.93-.28,1.78-.51,2.15-1.51,2.17,2.24,4.42,4.41,6.48,6.74,1.43,1.62,2.61,1.84,4.34.38s1.16-2.62-.16-3.83a4.83,4.83,0,0,1-1.71-2.74c3-.61,6.37,1.3,9.1-1.27l2.52,0c1.89,1.71,3.92.25,5.88.24,9.93,0,19.86.24,29.75-1,5.45-.66,10.91-1.17,16.36-1.78,4.07-.45,7.24-1.92,7.58-6.68.09-1.29,1.32-1.65,2.39-2Q1181.78,618.71,1181.15,630.56Z"/><path class="cls-5" d="M1047,86.37l2.16,4.37c-4.45-1-8.9,2.45-13.35,0,2.21-.9,1.77-2.93,2-4.68C1040.88,86,1044,85.61,1047,86.37Z"/><path class="cls-1" d="M1181.62,637.49a11.67,11.67,0,0,1,.13-7A5.87,5.87,0,0,1,1181.62,637.49Z"/><path class="cls-9" d="M1305.71,683.92c.65-2.4,2.5-1.59,4.08-1.52C1309.06,684.6,1307.31,684.05,1305.71,683.92Z"/><path class="cls-9" d="M950,705.09c1.09-1.41,2.58-.86,4-.81C953,706.53,951.62,706.52,950,705.09Z"/><path class="cls-4" d="M533.07,252c1.41,1.86,2,3.44-1.28,3.64C531.83,254.25,531.81,252.88,533.07,252Z"/><path class="cls-9" d="M136.22,660.27c1.49-1.53,2.42-1.09,2.91.84C138.06,661.19,137,661.39,136.22,660.27Z"/><path class="cls-1" d="M345.3,697.05l-.64-.49a4.92,4.92,0,0,1,.61-.5s.34.18.32.24A5.28,5.28,0,0,1,345.3,697.05Z"/><path class="cls-9" d="M987.16,703.19l1.77-.08c-.19.52-.3,1.41-.59,1.47C987.32,704.82,987.3,703.88,987.16,703.19Z"/><path class="cls-9" d="M934.59,706.74c.35-1.1.72-2.11,2-.76A1.56,1.56,0,0,1,934.59,706.74Z"/><path class="cls-9" d="M960.43,707.94l-.2.4.23-.37Z"/><path class="cls-9" d="M960.46,708l.2-.41-.23.39Z"/><path class="cls-1" d="M1180.91,647.26l-.31.24.32-.12Z"/><path class="cls-8" d="M427.26,648.83c3.39-.68,6.24,1.22,9.34,1.94a4.25,4.25,0,0,0,3,1c1.27,3.36,4.5,3.34,7.13,3.57,9.35.83,18.65-.92,28-1.09,7.25-.14,14.48-1.61,21.72-1.56,23,.15,45.8-3.1,68.8-3.29,17-.15,34.07-2.09,51.16-2.76,18.48-.73,36.93-2.25,55.45-2.91,17-.61,34.08-2.1,51.16-2.83,18.16-.79,36.3-2.2,54.5-2.88,17.21-.65,34.4-2.12,51.63-2.88,17.85-.79,35.69-2,53.55-2.86,17-.87,34.08-2.1,51.16-2.8,17.85-.73,35.68-2.07,53.54-2.94s35.67-2.15,53.55-2.82c11.16-.42,22.44-.7,33.5-2.91,1.94,4.43,5.59,7.67,8.15,11.67a2.1,2.1,0,0,1-2,1c-2.77-3.55-4.71-1.25-6.67,1-3.86,1-7.82.93-11.76,1.1-1.69-2.32.88-2.61,1.83-3.35,2-1.52,2.55-2.62.72-4.88s-2.9-1.81-4.92-.34a9.59,9.59,0,0,0-4.26,8.4h-4.44c-5.19,3.9-8.75,1.69-11.67-3.08-.09-.15-.55-.07-1-.12l-1.88,4.14c-5.91-.36-11.65,1.75-17.39,1.74-18.39,0-36.64,1.77-54.95,2.76-17.67,1-35.34,1.85-53,2.9-16.89,1-33.78,1.46-50.69,2.82-17.16,1.38-34.42,1.33-51.65,2.81s-34.7,1.52-52.07,2.87c-16.82,1.31-33.75,1.89-50.63,2.82-19.25,1.07-38.52,2-57.78,3-16.26.85-32.52,2-48.74,2.63-19.61.77-39.16,3.06-58.73,3.08-24.11,0-48,4.66-72.09,3.1a5,5,0,0,0-1,.06c-14.45,1.73-28.89,3.52-43.49,2.76-.06-2.62-.13-5.24-.19-7.85,4-1.94,4.28-4.45,1.16-7.48-1.09-1.83.64-3.11.91-4.67Z"/><path class="cls-4" d="M1067.17,95.06c.19-2.28-1.4-3.43-3-4.6a26.49,26.49,0,0,1,3.71-.59c23-.42,46-1,69-1.24,20.91-.25,41.82-1.28,62.72-2q18.31-.6,36.62-.64c25.06-.07,50-2.11,75.12-2.22,8.35,0,16.77-.36,25.16-.67,2.33-.08,5,.09,5,3,.07,3.18-2.79,2.73-5,2.78-22.5.57-45,1.4-67.49,2.14-16.34.54-32.68.11-49,.77-21.38.86-42.77,1.36-64.15,2.09-10.78.36-21.56.38-32.33.66-16.17.43-32.34.78-48.52,1C1072.5,95.5,1069.64,98.16,1067.17,95.06Z"/><path class="cls-10" d="M445.38,626.75c-1.26,1.93-.95,4.14-1.12,6.26a47.37,47.37,0,0,1-4.75-4.64c-5.68-7.31-4.42-13.13,3.74-18,2.25-.27,4.51-.77,6.66.45,2.81,3.78,2.24,5-2.57,5.74-5.56,1.32-6.46,3.62-2.92,7.45Z"/><path class="cls-4" d="M1035.82,90.75c4.45,2.44,8.9-1,13.35,0a10.42,10.42,0,0,1,3.82,4.73c-1.22,1.55-3,.77-4.52,1.07-3.67-2.46-7.27-3-11.25-.36-1.93,1.27-4.4,5-6.61,1.75s1.8-5,3.86-7C1034.75,90.72,1035.36,90.82,1035.82,90.75Z"/><path class="cls-10" d="M435.94,637.21c-.86-2.5,1.07-3.59,2.66-4.36,2.86-1.41,2.66,2.54,4.57,3,.1.45.2.91.29,1.37q0,5.35,0,10.71l-1,.87-6.09.17c-1.33-1.15-.86-2.38-.18-3.63C440.91,642.87,440.89,642.15,435.94,637.21Z"/><path class="cls-4" d="M449.91,610.82c-2.15-1.22-4.41-.72-6.66-.45q1-4.62,2-9.24L451,606.9C449.55,607.91,450.19,609.49,449.91,610.82Z"/><path class="cls-4" d="M444.42,624c-3.54-3.83-2.64-6.13,2.92-7.45C447,619.31,447.5,622.35,444.42,624Z"/><path class="cls-11" d="M443.44,647.94q0-5.36,0-10.71C447.12,641.66,447.12,643.9,443.44,647.94Z"/><path class="cls-11" d="M436.35,649l6.09-.17-2.85,3a4.25,4.25,0,0,1-3-1C436.51,650.18,436.43,649.58,436.35,649Z"/><path class="cls-6" d="M424.35,669.78c14.6.76,29-1,43.49-2.76a5,5,0,0,1,1-.06c24.13,1.56,48-3.08,72.09-3.1,19.57,0,39.12-2.31,58.73-3.08,16.22-.63,32.48-1.78,48.74-2.63,19.26-1,38.53-2,57.78-3,16.88-.93,33.81-1.51,50.63-2.82,17.37-1.35,34.79-1.39,52.07-2.87s34.49-1.43,51.65-2.81c16.91-1.36,33.8-1.82,50.69-2.82,17.68-1,35.35-1.95,53-2.9,18.31-1,36.56-2.8,54.95-2.76,5.74,0,11.48-2.1,17.39-1.74,0,1.33,1.09,2.33,1.37,3.43,1.2,4.9,2.78,9,8.41,10.75,2.07.65,3,4.43,4.94,6.18,3,2.64.64,3.28-1.14,4.35h-1.88a.85.85,0,0,0-.64-.32c-3.74-3.77-7.42-2.95-11.09.11l-2.56.56-4,.06-.09-.15c-.31-4.8,3.59-5.86,6.77-7.35,2.44-1.13,1.57-2.65,1.09-4.31-.62-2.1-1.94-1.65-3.35-1-5.55,2.54-10.18,5.87-10.8,12.63l-.12.11-4.13.33-4.56,1.14a31.72,31.72,0,0,0-9.28,0c-2.81-.51-5.62-1.11-8.23.7-37.61,1.37-75.18,3.54-112.75,5.71-23.3,1.34-46.63,2.15-69.94,3.36-31.87,1.66-63.73,3.52-95.6,5.18-7.93.42-15.87.4-23.8.59.17-3.34,2.22-4.12,5.13-3.87,1.8.15,2.51-.85,2.48-2.59s-.9-2-2.35-2.26c-6.72-1.06-10.1,1.85-9.92,8.7-1.06.9-2.36.82-3.62.89-32.51,1.62-65,3.19-97.52,4.9-30.76,1.62-61.49,3.84-92.27,5-24.27.89-48.47,3.38-72.78,3.29-.94-2.73-2.85-1.65-4.6-1.17a6.76,6.76,0,0,1-4.17-.27c.91-1.5,2.45-1.38,3.8-1.2,3.95.53,5.26-1,5-5C424.08,679.87,424.34,674.82,424.35,669.78Z"/><path class="cls-5" d="M424.35,669.78c0,5-.27,10.09,0,15.1.24,4-1.07,5.52-5,5-1.35-.18-2.89-.3-3.8,1.2L396,689.38a1.49,1.49,0,0,0-2.49-.56l-5.06-.55c1-3.81-.75-6.71-3.06-9.48-1.42-1.69-2.48-3.69-3.94-5.33-3.1-3.47-4.3-6.71.43-9.77,1.79-1.16.92-2.32,0-3.55s-1.63-2.1-3.44-1.1a10.78,10.78,0,0,0-3.6,16.19c2.88,3.94,5.73,7.91,8.6,11.86l-10.32-.56c-1.38-2.23,1.9-3,1.53-5-1.11-6-9.19-9.68-14.82-6.6-3.72,2.05-6.26,5.22-8.41,8.77h-1.22a1.47,1.47,0,0,0-2.49-.59l-6-.63a1.74,1.74,0,0,0-2.56-.56c-21.06-2.63-42.14-5.08-63.15-8-5.21-.73-10.7,0-15.64-2.5l3.54-.93c-3.14-1.13-5.1-6.52-4.42-11.51a37.45,37.45,0,0,0-.72-15.5c-1-3.38-.36-7.19-.47-10.81l10.94.49c1.27,1.42,2.76,1.43,4.37.69l4.22.24c5.06,2.4,10.5,1.4,15.78,1.76l2.32.29a3.56,3.56,0,0,0,4.36.59l3.33.16c.95,1.44,2.48,1.23,3.87,1.31,4.74.26,9.49.48,14.23.72l1,.15c1.12,1.2,2.63.93,4,1.07,6,.59,12,1.06,18,1.77,16.22,1.93,32.43,4,48.74,5.17a75.92,75.92,0,0,0-6.34,6.21c-2.69,3.29-3,7.08-.4,10.55,2.41,3.24,5.82,3.54,9.43,2.13,1.33-.52,2.61-1.2,4-1.63,1.67-.54,3.59-1.17,4.63.88.88,1.73-.37,3.16-1.65,4a22,22,0,0,1-5.85,3.09c-2.52.77-2.85,2.21-2.16,4.31.79,2.39,2.59,2,4.29,1.29a25,25,0,0,0,7.42-4.22c4.41-3.92,5.51-8.15,3.1-12.18-2.61-4.38-5.57-4.91-12-2.53-2.14.8-5.19,3.27-6.55-.26-1.17-3,2.31-4,4.44-5.2a6.4,6.4,0,0,1,1.76-.72c2.56-.54,2.24-2.22,1.66-4l2.36-1.23c1.79,2.06,4.35.76,6.44,1.47l.72,1c3.55,9.29,7.67,12.46,15.41,11.89Zm-80.12-16.09c1.28-4.08-.86-6.28-5.61-6.58-16.07-1-32.05-2.9-48-4.9-1.73-.22-3,.31-3.56,2.28-2.13,7.88.06,10.92,8,11a20.19,20.19,0,0,1,4.27.22c12.34,2.83,25.07,2.77,37.47,5.31C344,662.5,344.23,661.76,344.23,653.69Z"/><path class="cls-11" d="M351.47,683.68c2.15-3.55,4.69-6.72,8.41-8.77,5.63-3.08,13.71.56,14.82,6.6.37,2-2.91,2.79-1.53,5-2.45.14-4.2-1.89-6.53-2.11,1.07-2.28,0-4-2-4.45-3.3-.75-5.28,1.27-6.37,4.25Z"/><path class="cls-3" d="M1319.13,674.56c3.75.43,8.54-1.84,10.14,4.12.23.86,2,.91,2.48.19,2.35-3.88,5.72-2.07,8.47-1.3,3,.83,6.13.29,8.94,2.09L1318.23,683A20.67,20.67,0,0,1,1319.13,674.56Z"/><path class="cls-5" d="M358.25,684.22c1.09-3,3.07-5,6.37-4.25,2,.46,3.09,2.17,2,4.45C363.82,685.37,361,685.93,358.25,684.22Z"/><path class="cls-11" d="M1073.5,659.58c3-1.59,6.1-1,9.21-.85C1079.86,661.37,1076.64,660,1073.5,659.58Z"/><path class="cls-11" d="M997.28,663.64c2.61-1.81,5.42-1.21,8.23-.7C1002.89,664.68,1000.08,664.05,997.28,663.64Z"/><path class="cls-3" d="M129.52,655.75c2.19,0,4.43-.31,6.31,1.24l-5.27.44A1.74,1.74,0,0,1,129.52,655.75Z"/><path class="cls-9" d="M130.56,657.43l5.27-.44,2.37.24C135.7,659,133.14,658.81,130.56,657.43Z"/><path class="cls-5" d="M419.74,691.34c1.75-.48,3.66-1.56,4.6,1.17C422.71,692.5,420.93,693.07,419.74,691.34Z"/><path class="cls-11" d="M1020.57,663.07l-1.22-1.3,4.13-.33-1.08,1.65Z"/><path class="cls-3" d="M140,657.26a3,3,0,0,1,3.3.54,3.18,3.18,0,0,1-.5.7,2.23,2.23,0,0,0-.73,0A2.27,2.27,0,0,1,140,657.26Z"/><path class="cls-3" d="M1022.4,663.09l1.08-1.65.12-.11,1.82.18-1.12,1.57Z"/><path class="cls-11" d="M393.55,688.82a1.49,1.49,0,0,1,2.49.56A1.83,1.83,0,0,1,393.55,688.82Z"/><path class="cls-11" d="M347.76,683.08a1.47,1.47,0,0,1,2.49.59A1.84,1.84,0,0,1,347.76,683.08Z"/><path class="cls-11" d="M339.18,681.89a1.74,1.74,0,0,1,2.56.56A1.58,1.58,0,0,1,339.18,681.89Z"/><path class="cls-9" d="M142.07,658.47a2.23,2.23,0,0,1,.73,0C142.54,659,142.29,659,142.07,658.47Z"/><path class="cls-12" d="M249.74,641.48c0,6.78,0,6.06-6.78,5.77-8.89-.39-17.52-2.33-26.31-3.06-3.45-.29-4.48-1.41-4.13-4.55a28.48,28.48,0,0,0,0-3.81c-.1-3.34,1-3.94,4.61-3.67,8.66.65,17.31,1.12,26,2.17C249.68,635.13,249.74,634.62,249.74,641.48Z"/><path class="cls-12" d="M249.75,659.59c0,6,0,6.13-5.95,5.41-9.36-1.14-18.69-2.55-28-3.78-1.58-.2-2.24-.93-2.24-2.44,0-1.9-.09-3.81,0-5.71.18-3,1-4.05,4.72-3.72,8,.71,16,1.16,24,2.18C249.7,652.48,249.75,652.09,249.75,659.59Z"/><path class="cls-12" d="M78,629.59c0-5.48,2.9-8.56,7.89-8.48,4.68.08,9.3,5.38,9.27,10.65,0,5-3.43,9.32-7.48,9.42C83,641.29,78,635.29,78,629.59Z"/><path class="cls-12" d="M118.11,634.41c0,2.05.16,4.11-1.13,6-3.18,4.5-6.76,4.82-11.53.65-3.55-3.11-4.16-7.44-3.38-11.75a7,7,0,0,1,5.54-5.79C112.86,622.17,118.11,627.54,118.11,634.41Z"/><path class="cls-10" d="M438.66,598.8l.15.17c-5.93,2-12.08,2.09-18.23,2.12a100.37,100.37,0,0,0-23.85,2.48c13.55-.52,26.69,4.64,40.31,2.64-.17,1.09.14,2.33-1,3.1-9.89,1.8-19.77-1.6-30,1-10.46,2.71-21.66,2-32.57,2.44-4.92.21-10.14,0-15.7,2.44,6.56.37,12.25.15,17.92,1.09,5.27.89,10.7,2,16,1.6,14.35-1,28.66-2.55,43.07-2.53-.14,1,.12,2.09-.7,2.92A190,190,0,0,0,409,619.79c-7,1-14.1,1.71-21.28,1.12-5.87-.48-11.95-3.24-17.66.9-.66.47-1.85.23-2.8.27-6.8.35-13.59.67-20.39,1-.84,0-2-.28-2,1.12,25.55,4.94,51.31,2.79,77.07,2.26-5.16,3.77-11.35,1.07-16.71,3.27a95.81,95.81,0,0,0,10.21,1.71c1.4.19,2.76.43,1.35,2.28-4.86.17-9.6-1.75-14.5-.92l-2.67-.61c-2.46-4.81-7-2.6-10.11-2.1-9.6,1.52-18.93-.57-28.36-1-6.45-.32-12.86-1.39-19.29-2.15-4.43-.53-8-3.83-13.06-2.95-13.89,2.43-28,.77-41.37-2.35-7.26-1.7-14-.79-20.92-1.42-12-1.07-24.38-.37-35.73-3.55-6.92-1.94-13-.92-19.52-1.36-9.6-.64-20,.19-28.55-3.25-10.82-4.34-21.21.1-31.69-2.09-6.06-1.26-12.54-1.13-18.78-2.12-1.37-.22-3.34,0-3.07-2,.22-1.61,2.1-.75,3.26-.91a13.51,13.51,0,0,1,1.91,0c2.46-.11,4.89,1.17,7.38.2.84,2.07,2.52,1.61,4.13,1.37,20.08,1.44,40-.33,61.2-2.06-3.79-.75-6.71-.65-9.07-2.32.4-1.75,1.47-2.13,3.06-1.54,1.91.7,3.89.46,5.86.38,4.1.36,8.21.51,12.31.87,5.18.46,10.34,1.53,15.62,1.13,17.36-1.33,34.73-2.39,52.08-3.76,7-.55,13.94-1,21-1.41-3.23-.79-6.55-.87-9.52-2.4.33-2.58,2.36-1.72,3.87-1.91a203.6,203.6,0,0,0,44.88,2q10.65-.75,21.28-1.71c8.78-.79,17.63-1.45,26.38.6l.8.9c-7.11.4-14.23.58-21.31,1.23-14.79,1.37-29.59,2.43-44.44,2.72-3,.06-6.07.25-8.94-.84-4.31-1.65-7.22,2.58-10.91,2.57-17.89,0-35.57,3.41-53.47,3.15-1,0-2.08-.38-3,.33.9.85,2,.4,3,.52l5.45.2c.38,1.06,1,1.69,2.25,1.37,5.72.13,11.43.31,17.15.38,20.32.27,40.43-3.59,60.76-3.12a7.13,7.13,0,0,0,2.33-.4A61.72,61.72,0,0,1,373.11,601a38.4,38.4,0,0,0,13.73-.62,75.72,75.72,0,0,1,9.43-1c14.09-1.24,28.22-1.18,42.34-1.18A.84.84,0,0,1,438.66,598.8Zm-33.5,8.76c-5.65-.38-10.93-2.09-16.35-3.34s-11.68-.24-17.56-.28a30.69,30.69,0,0,1-8-.68c-1.75-.47-3.78-.83-5.11,1.28-.77,1.22-2.14,1.22-3.42,1.21-8.88,0-17.7,1.13-26.59,1.27-8.63.13-17.24,1.31-25.86,2,13.06,1.28,26,4.46,39.14,3.36,15-1.26,29.94-2.63,45-2.94C392.65,609.34,398.9,608.22,405.16,607.56Zm-95.41,5.73c-5.41-.94-11.17.24-15.92-3.55-11.82,1.19-23.77-1.79-35.59,1.8-7.91,2.4-16.36.55-24.54,1.89C259,618.35,284.38,616.48,309.75,613.29Zm-21.64,5.45c26,4.78,51.92,2.39,78.26.31-12.3-2.32-24.1-4.73-36.27-3.72a30.91,30.91,0,0,1-10.38-.72c-1.59-.4-3.85-.92-5,.53-1.65,2.12-3.74,1.82-5.88,2.23C302,618.68,295,617.85,288.11,618.74ZM184.92,609.1l-.06.51c8.6.94,17.19,2.58,25.79,2.6a188.59,188.59,0,0,0,22.22-1.75c7.47-.88,15-.29,22.45-1.37-3.38.1-5.4-3.24-8.66-3.25-6.35,0-12.73-.26-19.07.1-6,.35-11.76-1.63-18.27.58C201.76,609.09,193.1,608.39,184.92,609.1Z"/><path class="cls-1" d="M298.32,595.41c3,1.53,6.29,1.61,9.52,2.4-7,.41-14,.86-21,1.41-17.35,1.37-34.72,2.43-52.08,3.76-5.28.4-10.44-.67-15.62-1.13-4.1-.36-8.21-.51-12.31-.87.21-2.67,2.14-2.83,4.13-2.72,13.3.77,26.55-.46,39.65-2.13,10.26-1.31,20.48-.23,30.72-1.18C286.8,594.44,292.66,595.14,298.32,595.41Z"/><path class="cls-1" d="M394.73,594.39c-8.75-2-17.6-1.39-26.38-.6q-10.64,1-21.28,1.71a203.6,203.6,0,0,1-44.88-2c.53-.3,1.08-.9,1.6-.87,10.46.48,20.81-.87,31.15-2,9.47-1.09,18.95-.9,28.44-.92,6.95,0,13.92-.28,20.81,1l10.6,1.8Z"/><path class="cls-10" d="M401.59,647.54l-2.36,1.23c-2.29.66-3.51-2.26-5.76-1.73-16.31-1.21-32.52-3.24-48.74-5.17-6-.71-12-1.18-18-1.77-1.4-.14-2.91.13-4-1.07,2.72-2.27,5.8-3.49,9.19-2,3.54,1.6,7.18,1.15,10.84,1.4,13.77.9,27.48,2.51,41.16,4.36,5.44.73,11,.89,16.45,1.3C400.76,645.27,401.18,646.4,401.59,647.54Z"/><path class="cls-1" d="M141.68,605.15c-2.49,1-4.92-.31-7.38-.2.53-.31,1.08-.92,1.58-.88,9.35.79,18.46-1.64,27.71-2,4.08-.17,8.09-.91,12.2-1,7.44-.26,14.74,1.47,22.15,1.14,2.36,1.67,5.28,1.57,9.07,2.32-21.16,1.73-41.12,3.5-61.2,2.06C145.05,604.21,143.23,605.09,141.68,605.15Z"/><path class="cls-1" d="M443,583.78c.64,2.28-1.6,3.75-1.62,5.84-15.22.32-30.44,1.33-45.65-.25a1.63,1.63,0,0,0-2.24-1.39l-5.49-.14c1.51-1.75,3.56-1.09,5.34-1,15.49.82,30.63-3.59,46.09-2.86C440.7,584,441.76,581.57,443,583.78Z"/><path class="cls-10" d="M388,587.84l5.49.14c.37,1.07,1,1.7,2.24,1.39,15.21,1.58,30.43.57,45.65.25.07,1.42.34,2.85-.4,4.18-4.24-2.24-8.54-1.54-12.85-.28l-17.9.72c-.74-2-2.51-1.6-4-1.64-3.81-.08-7.63-.11-11.44-.17l-10.6-1.79C383.85,587.49,386,587.79,388,587.84Z"/><path class="cls-9" d="M401.59,647.54c-.41-1.14-.83-2.27-1.24-3.41,1.28-1.74,1.21-3.3-.27-5-1.84-2.09-1.88-4.49-.5-6.9l2.67.6c1.9,3.29,3.49,7.22,8.33,3.36,1.51-1.2,2.16.26,2.94,1.24s1.42,2,.25,3.31c-.93,1-3.21,1.58-2.65,3,1.32,3.41-1.21,4-3.09,5.25C405.94,648.3,403.38,649.6,401.59,647.54Z"/><path class="cls-10" d="M321.74,638.88c-4.74-.24-9.49-.46-14.23-.72-1.39-.08-2.92.13-3.87-1.31,5.12-.48,10.18-1.57,15.37-1.34C321.44,635.61,322.65,636.28,321.74,638.88Z"/><path class="cls-10" d="M293.63,635.81c-5.28-.36-10.72.64-15.78-1.76q6.19-.67,12.4-1.37C292.6,632.42,293.78,633.38,293.63,635.81Z"/><path class="cls-10" d="M300.31,636.69a3.56,3.56,0,0,1-4.36-.59C297.44,636,299.34,633,300.31,636.69Z"/><path class="cls-10" d="M273.63,633.81c-1.61.74-3.1.73-4.37-.69C270.84,632.56,272.4,632.11,273.63,633.81Z"/><path class="cls-10" d="M280.54,632a6,6,0,0,1-4.76,0Z"/><path class="cls-10" d="M303.26,635.27c1.06-1.23,2.3-.37,3.81-.87C305.67,636.15,304.39,634.83,303.26,635.27Z"/><path class="cls-1" d="M416.75,633.75c1.41-1.85.05-2.09-1.35-2.28a95.81,95.81,0,0,1-10.21-1.71c5.36-2.2,11.55.5,16.71-3.27-25.76.53-51.52,2.68-77.07-2.26,0-1.4,1.19-1.07,2-1.12,6.8-.36,13.59-.68,20.39-1,.95,0,2.14.2,2.8-.27,5.71-4.14,11.79-1.38,17.66-.9,7.18.59,14.32-.16,21.28-1.12a190,190,0,0,1,25.08-1.48c-1.5,4.72-1.51,9.87-4.09,14.28a24.29,24.29,0,0,0-2.83,0c-1.31.12-3-.49-3.6,1.36a3.49,3.49,0,0,0,.86,3.91c1.26,1.08,1.58,3.22,3.68,3.35,0,.64.09,1.28.13,1.91-2.47-.9-3.61,4.76-6.31,1.49-1.66-2-3.73-3.92-4.27-6.71C417.37,636.49,417.05,635.12,416.75,633.75Z"/><path class="cls-1" d="M434.77,615.39c-14.41,0-28.72,1.54-43.07,2.53-5.27.37-10.7-.71-16-1.6-5.67-.94-11.36-.72-17.92-1.09,5.56-2.44,10.78-2.23,15.7-2.44,10.91-.46,22.11.27,32.57-2.44,10.19-2.64,20.07.76,30-1C436,611.41,436.31,613.6,434.77,615.39Z"/><path class="cls-3" d="M413.77,640.74c1.17-1.27.61-2.22-.25-3.31s-1.43-2.44-2.94-1.24c-4.84,3.86-6.43-.07-8.33-3.36,4.9-.83,9.64,1.09,14.5.92.3,1.37.62,2.74.89,4.12.54,2.79,2.61,4.7,4.27,6.71,2.7,3.27,3.84-2.39,6.31-1.49,3.32,2.53.51,4-1,5.74l-1,.95-11.28.1-6.2.16-.72-1"/><path class="cls-1" d="M437,606.21c-13.62,2-26.76-3.16-40.31-2.64a100.37,100.37,0,0,1,23.85-2.48c6.15,0,12.3-.14,18.23-2.12C438.66,601.49,439.2,604.19,437,606.21Z"/><path class="cls-3" d="M428.09,641.18c-2.1-.13-2.42-2.27-3.68-3.35a3.49,3.49,0,0,1-.86-3.91c.58-1.85,2.29-1.24,3.6-1.36a24.29,24.29,0,0,1,2.83,0A20.56,20.56,0,0,1,428.09,641.18Z"/><path class="cls-3" d="M428.16,593.52c4.31-1.26,8.61-2,12.85.28-1.09,1.53-.37,3.9-2.35,5a.84.84,0,0,0-.05-.64c-1.57-1.77-3.25-3.17-5.92-2.83A4.92,4.92,0,0,1,428.16,593.52Z"/><path class="cls-4" d="M435.94,637.21c4.95,4.94,5,5.66.23,8.14A27.77,27.77,0,0,1,435.94,637.21Z"/><path class="cls-13" d="M412.27,373.57a4.23,4.23,0,0,1-.79,0c-.08,0-.22-.33-.18-.37a3.78,3.78,0,0,1,.56-.4Z"/><path class="cls-14" d="M1108.81,619.28c-1.29-1.07-3.3-2.22-2.1-4,1-1.51,2.83.11,4.22.47,2.37.61,4.66,1.5,7,2.28C1115.18,620.58,1111.82,618.67,1108.81,619.28Z"/><path class="cls-11" d="M408.75,650l6.2-.16c2.27,4.2,5.05,7.27,10.37,4.57,3.12,3,2.83,5.54-1.16,7.48C416.42,662.5,412.3,659.33,408.75,650Z"/><path class="cls-5" d="M425.32,654.45c-5.32,2.7-8.1-.37-10.37-4.57l11.28-.1C426,651.34,424.23,652.62,425.32,654.45Z"/><path class="cls-11" d="M1025.42,661.51l-1.82-.18c.62-6.76,5.25-10.09,10.8-12.63,1.41-.65,2.73-1.1,3.35,1,.48,1.66,1.35,3.18-1.09,4.31-3.18,1.49-7.08,2.55-6.77,7.35Z"/><path class="cls-11" d="M1047.59,660.78a45.22,45.22,0,0,1-11.09.11C1040.17,657.83,1043.85,657,1047.59,660.78Z"/><path class="cls-3" d="M1033.94,661.45c-1.28,2.49-2.6,2.47-4,.06Z"/><path class="cls-12" d="M344.23,653.69c0,8.07-.28,8.81-7.42,7.35-12.4-2.54-25.13-2.48-37.47-5.31a20.19,20.19,0,0,0-4.27-.22c-8-.1-10.16-3.14-8-11,.54-2,1.83-2.5,3.56-2.28,16,2,31.95,3.89,48,4.9C343.37,647.41,345.51,649.61,344.23,653.69Z"/><path class="cls-1" d="M428.16,593.52a4.92,4.92,0,0,0,4.53,1.81c2.67-.34,4.35,1.06,5.92,2.83-14.12,0-28.25-.06-42.34,1.18a75.72,75.72,0,0,0-9.43,1,38.4,38.4,0,0,1-13.73.62,61.72,61.72,0,0,0-28.76,2.44,7.13,7.13,0,0,1-2.33.4c-20.33-.47-40.44,3.39-60.76,3.12-5.72-.07-11.43-.25-17.15-.37a1.61,1.61,0,0,0-2.25-1.38l-5.45-.2c0-.28,0-.57,0-.85,17.9.26,35.58-3.19,53.47-3.15,3.69,0,6.6-4.22,10.91-2.57,2.87,1.09,5.94.9,8.94.84,14.85-.29,29.65-1.35,44.44-2.72,7.08-.65,14.2-.83,21.31-1.23,5,.55,9.77-1.3,14.73-1Z"/><path class="cls-1" d="M405.16,607.56c-6.26.66-12.51,1.78-18.78,1.91-15.06.31-30,1.68-45,2.94-13.17,1.1-26.08-2.08-39.14-3.36,8.62-.72,17.23-1.9,25.86-2,8.89-.14,17.71-1.28,26.59-1.27,1.28,0,2.65,0,3.42-1.21,1.33-2.11,3.36-1.75,5.11-1.28a30.69,30.69,0,0,0,8,.68c5.88,0,12-1,17.56.28S399.51,607.18,405.16,607.56Z"/><path class="cls-1" d="M309.75,613.29c-25.37,3.19-50.72,5.06-76.05.14,8.18-1.34,16.63.51,24.54-1.89,11.82-3.59,23.77-.61,35.59-1.8C298.58,613.53,304.34,612.35,309.75,613.29Z"/><path class="cls-1" d="M288.11,618.74c6.86-.89,13.85-.06,20.76-1.37,2.14-.41,4.23-.11,5.88-2.23,1.12-1.45,3.38-.93,5-.53a30.91,30.91,0,0,0,10.38.72c12.17-1,24,1.4,36.27,3.72C340,621.13,314.11,623.52,288.11,618.74Z"/><path class="cls-1" d="M184.92,609.1c8.18-.71,16.84,0,24.4-2.58,6.51-2.21,12.23-.23,18.27-.58,6.34-.36,12.72-.13,19.07-.1,3.26,0,5.28,3.35,8.66,3.25-7.49,1.08-15,.49-22.45,1.37a188.59,188.59,0,0,1-22.22,1.75c-8.6,0-17.19-1.66-25.79-2.6Z"/><path class="cls-3" d="M410.26,594.24c-5-.25-9.76,1.6-14.73,1l-.8-.9.06-1.95c3.81,0,7.63.08,11.44.16C407.75,592.64,409.52,592.21,410.26,594.24Z"/><path class="cls-3" d="M141.68,605.15c1.55-.06,3.37-.94,4.13,1.37C144.2,606.76,142.52,607.22,141.68,605.15Z"/><path class="cls-3" d="M261.86,605.17a1.61,1.61,0,0,1,2.25,1.38C262.88,606.86,262.24,606.23,261.86,605.17Z"/><path class="cls-3" d="M256.46,604.12c0,.28,0,.57,0,.85-1-.12-2.1.33-3-.52C254.38,603.74,255.44,604.1,256.46,604.12Z"/><path class="cls-3" d="M395.76,589.37c-1.23.31-1.87-.32-2.24-1.39A1.63,1.63,0,0,1,395.76,589.37Z"/><path class="cls-14" d="M694.13,106.16c4,0,8,0,10.18-1,9.14-.88,18.32.16,27.43-.29,18-.89,36.07-1.59,54.13-1.74,10.92-.09,21.85-.2,32.78-.66,19.14-.81,38.3-1.28,57.46-2,21.7-.75,43.45-.07,65.17-1.12,13.61-.66,27.25-.71,40.87-1a14.91,14.91,0,0,0,1.9-.13c10.26-1.56,20.59-.4,30.88-.73a2.21,2.21,0,0,1,2,1.07M1062,90c-4.46,2-6.69-.16-8.16-4L1239,81.25q45.7-1.14,91.42-2.25c7.14-.18,13.71,1.46,19.25,6.28,4.63,4,5.26,6.62,3.24,12.4-1.62,4.62-3.05,9.3-4.56,13.95-1.59,1.46-5.36-.07-5.29,3.42.09,3.78-1.08,5.7-5.12,5.25-1.75-.2-2.55.77-2.53,2.56,0,2,1.23,2.2,2.81,2.33s3.52-.75,4.85,1c-2.2,6.91-4.33,13.84-6.6,20.73q-14,42.27-28.06,84.52c-6.2,18.57-12.6,37.06-18.79,55.63-9,27.09-17.92,54.23-26.94,81.32-5.24,15.71-10.66,31.36-15.9,47.07-2.84,8.51-5.46,17.09-8.18,25.64-1.77,1.44-1.52,3.5-1.67,5.44a3.43,3.43,0,0,0-1.53,3.92c-.92.34-.91,1.12-.91,1.9-.54,2-1.09,4-1.63,6-1.61,1.13-1.5,2.81-1.45,4.48-1.65,2.11-3.47,4.14-3.1,7.12-2,1-1.55,2.71-1.1,4.37-.09.64-.19,1.29-.28,1.94-1.14.18-1,1.06-1,1.85-5.45,16.27-11,32.53-16.36,48.81-7.11,21.35-14.12,42.73-21.25,64.08-1.8,5.36-3.93,10.61-5.9,15.92-1.07.34-2.3.7-2.39,2-.34,4.76-3.51,6.23-7.58,6.68-5.45.61-10.91,1.12-16.36,1.78-9.89,1.2-19.82.92-29.75,1-2,0-4,1.47-5.88-.23,4.13-4.7,4.14-4.7-1.84-6.21-.76-.19-1.55-.32-2.31-.53-11.25-3-11.21-3-11.82-14.67-.07-1.35,1-3.76-1.37-3.8-1.84,0-3.54,1.64-4,3.57a17.44,17.44,0,0,0,0,5.2c.19,2.19,1.17,4.39,0,7.18-4.2-4.9-8-9.34-11.81-13.77-1.24-1.44-2.34-3.16-4.58-1.13s-.77,3.38.4,4.87c1,1.25,2.11,2.36,3.12,3.58,4.5,5.49,9.65,10.44,13.6,16.38-.37,1-1.22,1.23-2.15,1.51-5.34,1.6-10.79.65-16.19.88-.8-4,1.33-5.86,4.93-5.25,2.65.46,3.49-.71,4.1-2.6.8-2.51-1.36-2.86-2.88-3.43-7.1-2.69-13.12,2.35-13.23,11-11.06,2.21-22.34,2.49-33.5,2.91-17.88.67-35.7,2-53.55,2.82s-35.69,2.21-53.54,2.94c-17.08.7-34.11,1.93-51.16,2.8-17.86.9-35.7,2.07-53.55,2.86-17.23.76-34.42,2.23-51.63,2.88-18.2.68-36.34,2.09-54.5,2.88-17.08.73-34.11,2.22-51.16,2.83-18.52.66-37,2.18-55.45,2.91-17.09.67-34.13,2.61-51.16,2.76-23,.19-45.8,3.44-68.8,3.29-7.24-.05-14.47,1.42-21.72,1.56-9.35.17-18.65,1.92-28,1.09-2.63-.23-5.86-.21-7.13-3.57l2.85-3,1-.87c3.68-4,3.68-6.28,0-10.72l-.29-1.36a2.05,2.05,0,0,1,1.73-1.34c2.93,3.14,6.11,5.7,10.79,4.08,4.35-1.5,7.32-4.48,8.27-9,.43-2.06.81-5-2.09-5.45-2.2-.38-4.22.68-4.13,3.83.07,2.27-1.71,3.7-3.72,4.45s-3.56-.66-4.92-2c-1.21-1.23-2.48-2.41-3.72-3.62l-1-2.74c3.08-1.66,2.62-4.7,2.92-7.45,4.81-.7,5.38-2,2.57-5.74.28-1.33-.36-2.91,1.09-3.92,5.39,5.8,10.8,11.59,16.17,17.42,1.52,1.64,2.85,2.23,4.76.38s1.08-2.85-.22-4.36c-1.47-1.7-4.88-3.2-3.43-5.56s4.55-.06,6.9.16c2.95.28,5.95,1.64,8.38-1.26.59-.7,1.68-1.25,1.38-2.31s-1.48-1.07-2.36-1.23c-4-.75-8.07-1.64-12.15-2-2.9-.27-3.82-1.8-4-4.27-.18-3-.26-6-.4-9-.14-2.71-1.29-2.82-3.33-1.43a5,5,0,0,0-2.25,4.86c.17,3.15.12,6.32.17,9.48l-.13.12c-3.5-2.23-6.07-5.38-8.55-8.63,1.19-1.64.85-3.67,1.36-5.49,3.67-13.23,7.41-26.44,10.91-39.71,4.28-16.16,8.27-32.4,12.52-48.57,3.33-12.66,7-25.22,10.3-37.89,5.08-19.54,9.86-39.16,14.92-58.7,3.25-12.51,6.89-24.91,10.17-37.4,4.28-16.33,8.26-32.74,12.59-49.05,4.41-16.63,9.13-33.18,13.62-49.79.66-2.45.56-4.74,4.39-4.63,5.73.16,8.83-4.44,7.35-10-.51-1.92-1.69-3.06-3.73-3s-1.79,1.79-1.87,3.17a15.55,15.55,0,0,1-.15,2.37c-.17.8-.66,1.51-1.6,1.46s-1.09-1-1.08-1.75a11.21,11.21,0,0,1,.23-2.84c2.43-9,4.94-18,7.38-27,2.14-7.9,4.25-15.82,6.43-23.71,4.36-15.8,7.91-31.81,12-47.67,3.42-13.12,7.23-26.14,10.78-39.22,1.71-6.33,7.75-11.78,14.38-11.83,19.51-.14,39-1,58.47-1.85,11.27-.48,22.57-.22,33.85-.2,2.81,0,5.64-1.15,8.43.09m373.51-11c2.47,3.1,5.33.44,7.95.42,16.18-.17,32.35-.52,48.52-1,10.77-.28,21.55-.3,32.33-.66,21.38-.73,42.77-1.23,64.15-2.09,16.32-.66,32.66-.23,49-.77,22.49-.74,45-1.57,67.49-2.14,2.2-.05,5.06.4,5-2.78-.06-2.87-2.72-3-5-3-8.39.31-16.81.64-25.16.67-25.07.11-50.06,2.15-75.12,2.22q-18.3.06-36.62.64c-20.9.69-41.81,1.72-62.72,2-23,.28-46,.82-69,1.24M474.68,589c-.53-1.75-1.62-3.06-3.6-3.06s-3.49,1.09-3.39,3.11,1.67,2.86,3.71,2.68C473.1,591.53,474.51,591.08,474.68,589Z"/></svg>