<?xml version="1.0" encoding="iso-8859-1"?>
<!-- Generator: Adobe Illustrator 19.0.0, SVG Export Plug-In . SVG Version: 6.00 Build 0)  -->
<svg version="1.1" id="Layer_1" xmlns="http://www.w3.org/2000/svg" xmlns:xlink="http://www.w3.org/1999/xlink" x="0px" y="0px"
	 viewBox="0 0 291.364 291.364" style="enable-background:new 0 0 291.364 291.364;" xml:space="preserve" width="200">
<g>
	<path style="fill:#26A6D1;" d="M145.683,90.937c30.17,0,54.622,24.471,54.622,54.622c0,30.179-24.453,54.622-54.622,54.622
		c-30.152,0-54.622-24.453-54.622-54.622C91.061,115.408,115.532,90.937,145.683,90.937z"/>
	<path style="fill:#3DB39E;" d="M145.683,218.398c-36.852,0-67.231-27.384-72.074-62.925L23.402,68.414l-0.055-0.127l-5.617,8.111
		c-1.384,2.54-2.731,5.116-3.969,7.747l-2.686,6.282c-0.892,2.167-1.775,4.361-2.567,6.6c-0.892,2.485-1.666,4.998-2.403,7.52
		l-1.62,5.799c-0.674,2.704-1.247,5.408-1.766,8.13l-0.983,5.744c-0.401,2.667-0.71,5.317-0.947,7.966l-0.473,6.345
		c-0.118,2.422-0.164,4.834-0.164,7.256s0.036,4.843,0.164,7.256l0.473,6.345c0.246,2.649,0.564,5.317,0.947,7.966l0.983,5.744
		c0.528,2.722,1.092,5.426,1.766,8.13l1.62,5.799c0.747,2.504,1.511,5.034,2.403,7.52c0.792,2.221,1.684,4.406,2.567,6.6
		c0.874,2.094,1.711,4.197,2.686,6.272c1.238,2.631,2.585,5.189,3.978,7.756l1.812,3.56l0.838,1.302
		c1.602,2.74,3.368,5.353,5.153,7.966l2.859,4.251c1.721,2.349,3.605,4.588,5.49,6.846l3.769,4.515
		c1.639,1.793,3.396,3.505,5.125,5.226c1.73,1.739,3.432,3.523,5.235,5.134l4.515,3.787c2.258,1.866,4.497,3.751,6.846,5.48
		l4.215,2.877c2.622,1.793,5.253,3.56,7.966,5.153l1.293,0.838l3.55,1.812c2.549,1.384,5.116,2.758,7.747,3.987l0.756,0.391
		l3.687,1.511c9.85,4.197,20.137,7.165,30.625,9.122l41.558-72.065C155.907,217.843,150.863,218.398,145.683,218.398z"/>
	<path style="fill:#EFC75E;" d="M290.851,135.636l-0.191-2.403c-1.029-12.163-6.027-29.769-10.178-41.586h-85.966
		c14.702,13.319,23.997,32.5,23.997,53.912c0,23.105-10.788,43.652-27.539,56.989l-51.208,88.816c18.007,0,42.25-3.25,59.693-10.223
		l0.592-0.191l0.929-0.391c5.945-2.467,11.826-5.171,17.552-8.485c5.125-2.95,9.923-6.263,14.557-9.723l0.264-0.209
		c4.461-3.378,8.639-6.973,12.627-10.761l0.619-0.537l2.012-2.048c8.812-8.822,16.378-18.562,22.55-29.068l0.701-1.029l1.265-2.558
		c1.985-3.605,3.824-7.292,5.499-11.043l2.148-5.053c1.42-3.56,2.658-7.165,3.796-10.815l1.502-4.698
		c1.393-5.071,2.531-10.187,3.378-15.367l0.355-2.95c0.628-4.443,1.074-8.913,1.302-13.428l0.082-3.614
		C291.261,144.676,291.17,140.152,290.851,135.636z"/>
	<path style="fill:#E2574C;" d="M271.779,72.73c-3.05-5.28-6.464-10.205-10.051-14.957l-1.174-1.457
		c-3.223-4.16-6.637-8.111-10.242-11.826l-2.44-2.504c-3.96-3.896-8.066-7.593-12.372-10.97l-0.947-0.801
		c-4.798-3.696-9.823-7.019-15.003-10.06l-1.038-0.692l-3.942-2.048c-2.276-1.229-4.543-2.458-6.882-3.56
		c-2.249-1.047-4.515-1.976-6.782-2.913l-5.708-2.276c-2.758-0.992-5.544-1.83-8.339-2.686l-4.643-1.347
		c-3.041-0.783-6.109-1.402-9.167-1.994l-4.333-0.856c-2.986-0.482-5.972-0.783-8.967-1.065l-4.907-0.501
		c-2.567-0.164-5.125-0.146-7.711-0.182L140.813,0l-4.916,0.355c-10.87,0.728-21.74,2.667-32.418,5.899l-2.212,0.601
		c-2.704,0.874-5.371,1.939-8.048,2.986l-5.134,2.03c-2.203,0.938-4.379,2.039-6.564,3.123c-2.112,1.038-4.233,2.085-6.309,3.241
		l-2.367,1.211l-3.496,2.258c-2.067,1.275-4.115,2.576-6.127,3.96c-1.966,1.375-3.905,2.777-5.799,4.215l-5.007,3.997
		c-2.067,1.73-4.078,3.487-6.036,5.307l-3.714,3.623c-2.158,2.167-4.27,4.37-6.263,6.646l-1.356,1.639l41.431,71.874
		c9.513-29.141,36.888-50.234,69.216-50.234C145.692,72.73,271.779,72.73,271.779,72.73z"/>
</g>
</svg>
