<?xml version="1.0" encoding="iso-8859-1"?>
<!-- Generator: Adobe Illustrator 19.0.0, SVG Export Plug-In . SVG Version: 6.00 Build 0)  -->
<svg version="1.1" id="Layer_1" xmlns="http://www.w3.org/2000/svg" xmlns:xlink="http://www.w3.org/1999/xlink" x="0px" y="0px"
	 viewBox="0 0 272.603 272.603" style="enable-background:new 0 0 272.603 272.603;" xml:space="preserve" width="200">
		<g>
			<path style="fill:#26A6D1;" d="M107.623,67.226c-10.924,11.835-16.387,26.401-18.207,41.877c32.773,0,64.636,0,96.499,0
				c0-2.731,0-4.552,0-7.283c-0.91-10.014-2.731-20.028-8.193-29.132c-7.283-11.835-19.118-18.207-32.773-20.028
				c-20.028-3.641-39.146,0-57.353,7.283c-27.311,10.014-50.07,26.401-68.278,48.25c-2.731,3.641-5.462,8.193-9.104,12.745
				c0-2.731,0-3.641,0.91-5.462c3.641-25.49,12.745-50.07,30.042-70.099C61.195,21.708,86.685,7.142,117.638,1.68
				c30.042-4.552,58.264,0,84.665,15.476c24.58,13.656,40.967,34.594,50.981,60.995c5.462,14.566,8.193,30.953,9.104,46.429
				c0,10.014,0,20.028,0,30.042c0,0.91,0,1.821,0,3.641c-57.353,0-113.796,0-171.15,0c0,13.656,4.552,26.401,13.656,36.415
				c10.924,11.835,25.49,17.297,40.056,20.028c32.773,4.552,62.816-0.91,91.037-17.297c0.91,0,1.821-0.91,1.821-0.91s0,0,0.91,0
				c0,0.91,0,1.821,0,2.731c0,17.297,0,34.594,0,51.891c0,1.821-0.91,2.731-2.731,3.641c-20.028,10.014-41.877,16.387-64.636,17.297
				c-14.566,0.91-29.132,0.91-42.787-1.821c-42.787-9.104-77.382-40.056-85.575-84.665c-9.104-50.981,15.476-97.41,63.726-118.348
				C106.713,67.226,106.713,67.226,107.623,67.226z"/>
		</g>
</svg>
