<?xml version="1.0" encoding="iso-8859-1"?>
<!-- Generator: Adobe Illustrator 19.0.0, SVG Export Plug-In . SVG Version: 6.00 Build 0)  -->
<svg version="1.1" id="Layer_1" xmlns="http://www.w3.org/2000/svg" xmlns:xlink="http://www.w3.org/1999/xlink" x="0px" y="0px"
	 viewBox="0 0 291.492 291.492" style="enable-background:new 0 0 291.492 291.492;" xml:space="preserve" width="200">
<g>
	<path style="fill:#E2574C;" d="M224.138,22.932C202.571,8.166,175.879,0,145.782,0c-27.53,0-52.201,6.81-72.73,19.263
		C33.534,42.997,9.199,87.423,9.199,144.349c0,76.999,54.613,147.143,136.556,147.143c81.933,0,136.538-70.126,136.538-147.143
		C282.284,90.227,260.289,47.403,224.138,22.932z M145.773,27.193c43.953,0,54.586,61.068,54.586,116.537
		c0,51.4-6.664,120.178-54.058,120.178s-55.214-69.452-55.214-120.843C91.096,87.596,101.811,27.193,145.773,27.193z"/>
</g>
</svg>
