<?xml version="1.0" encoding="iso-8859-1"?>
<!-- Generator: Adobe Illustrator 19.0.0, SVG Export Plug-In . SVG Version: 6.00 Build 0)  -->
<svg version="1.1" id="Layer_1" xmlns="http://www.w3.org/2000/svg" xmlns:xlink="http://www.w3.org/1999/xlink" x="0px" y="0px"
	 viewBox="0 0 291.32 291.32" style="enable-background:new 0 0 291.32 291.32;" xml:space="preserve"  width="200">
	<g>
		<path style="fill:#26A6D1;" d="M145.66,0C65.547,0,0,65.547,0,145.66s65.547,145.66,145.66,145.66s145.66-65.547,145.66-145.66
			S225.772,0,145.66,0z M145.66,264.008c-65.547,0-118.348-52.802-118.348-118.348S80.113,27.311,145.66,27.311
			S264.008,80.113,264.008,145.66S211.206,264.008,145.66,264.008z"/>
		<path style="fill:#E2574C;" d="M221.22,70.099l-56.443,94.679l-38.236-38.236C126.542,126.542,221.22,70.099,221.22,70.099z"/>
		<path style="fill:#E4E7E7;" d="M70.099,221.22l94.679-56.443l-38.236-38.236C126.542,126.542,70.099,221.22,70.099,221.22z"/>
	</g>
</svg>
